# xmcd
#
# Track frame offsets: 
#        150
#        4065
#        23839
#        38659
#        51202
#        64770
#        77497
#        95497
#        113404
#        125083
#        144118
#        158248
#        172307
#        189941
#        204176
#        216954
#        229503
#
# Disc length: 3232 seconds
#
# Revision: 0
# Processed by: cddbd v1.5.2PL0 Copyright (c) Steve Scherf et al.
# Submitted via: ExactAudioCopy v1.0b3
#
DISCID=d70c9e11
DTITLE=Jorge and Mateus - Os Anjos Cantam
DYEAR=2015
DGENRE=Sertanejo
TTITLE0=Intro
TTITLE1=31.12
TTITLE2=Os Anjos Cantam
TTITLE3=Nocaute
TTITLE4=A Hora, o dia e o lugar
TTITLE5=Se Disser Bye Bye
TTITLE6=Como não me apaixonar
TTITLE7=Idas e voltas
TTITLE8=Logo eu
TTITLE9=Coisas de quem ama
TTITLE10=Não tem comparação
TTITLE11=Calma
TTITLE12=O que eu tava falando
TTITLE13=Fica só um pouco mais
TTITLE14=Maneira errada
TTITLE15=Vai entender
TTITLE16=É amor
EXTD=
EXTT0=
EXTT1=
EXTT2=
EXTT3=
EXTT4=
EXTT5=
EXTT6=
EXTT7=
EXTT8=
EXTT9=
EXTT10=
EXTT11=
EXTT12=
EXTT13=
EXTT14=
EXTT15=
EXTT16=
PLAYORDER=
